<svg width="99" height="50" viewBox="0 0 99 50" fill="none" xmlns="http://www.w3.org/2000/svg">
<path d="M19.671 19.4C17.5644 19.4 15.831 18.7133 14.471 17.34C13.1244 15.9667 12.451 14.2133 12.451 12.08C12.451 9.96 13.1844 8.18667 14.651 6.76C16.131 5.33333 17.9644 4.62 20.151 4.62C22.2577 4.62 23.9844 5.30667 25.331 6.68C26.691 8.05333 27.371 9.80667 27.371 11.94C27.371 14.02 26.6244 15.7867 25.131 17.24C23.6377 18.68 21.8177 19.4 19.671 19.4ZM13.871 11.04C13.871 13.0533 14.4977 14.84 15.751 16.4C17.0177 17.96 18.571 18.74 20.411 18.74C21.9844 18.74 23.2977 18.1867 24.351 17.08C25.4177 15.9733 25.951 14.6 25.951 12.96C25.951 11.6933 25.6777 10.4733 25.131 9.3C24.5977 8.12667 23.8177 7.16 22.791 6.4C21.7777 5.64 20.6444 5.26 19.391 5.26C17.791 5.26 16.471 5.80667 15.431 6.9C14.391 7.98 13.871 9.36 13.871 11.04ZM31.1354 19.16H29.7354V8.78L31.1754 8.8V12.52L30.9154 16.22H30.9954C31.4088 13.6733 32.0754 11.7733 32.9954 10.52C33.9154 9.26667 34.9088 8.64 35.9754 8.64C36.9488 8.64 37.6954 8.98667 38.2154 9.68C38.7488 10.36 39.1688 11.5267 39.4754 13.18L40.5554 19.16H39.0754L37.9554 12.92C37.7288 11.6933 37.4154 10.8 37.0154 10.24C36.6288 9.66667 36.1088 9.38 35.4554 9.38C34.4688 9.38 33.5754 10.1533 32.7754 11.7C31.9888 13.2333 31.4688 15.2133 31.2154 17.64L31.1354 19.16ZM43.5785 17.86C42.5919 16.86 42.0985 15.6067 42.0985 14.1C42.0985 12.5933 42.6452 11.3 43.7385 10.22C44.8452 9.14 46.1652 8.6 47.6985 8.6C48.8185 8.6 49.7719 8.94667 50.5585 9.64C51.3585 10.32 51.7585 11.1467 51.7585 12.12C51.7585 12.3333 51.7185 12.6 51.6385 12.92H43.6185V13.2C43.6185 14.6933 44.0185 15.9133 44.8185 16.86C45.6185 17.8067 46.6519 18.28 47.9185 18.28C50.1185 18.28 51.6719 16.9267 52.5785 14.22L52.9785 14.4C52.4185 16 51.6519 17.2267 50.6785 18.08C49.7185 18.9333 48.5852 19.36 47.2785 19.36C45.7985 19.36 44.5652 18.86 43.5785 17.86ZM43.6785 12.42H49.3385C49.8319 12.42 50.0785 12.1733 50.0785 11.68C50.0785 10.8533 49.8519 10.22 49.3985 9.78C48.9585 9.32667 48.3252 9.1 47.4985 9.1C46.6852 9.1 45.8852 9.39333 45.0985 9.98C44.3252 10.5667 43.8519 11.38 43.6785 12.42ZM54.2406 21.72L54.0606 21.24C55.1672 20.88 55.7872 20.18 55.9206 19.14C55.7472 19.2733 55.5406 19.34 55.3006 19.34C54.9806 19.34 54.7139 19.2333 54.5006 19.02C54.3006 18.82 54.2006 18.56 54.2006 18.24C54.2006 17.92 54.3006 17.6533 54.5006 17.44C54.7139 17.2133 54.9739 17.1 55.2806 17.1C55.6272 17.1 55.9006 17.2133 56.1006 17.44C56.3139 17.6533 56.4206 17.94 56.4206 18.3C56.4472 20.1267 55.7206 21.2667 54.2406 21.72Z" fill="black"/>
<path d="M32.7706 24.34H28.0506V23.84H38.9106V24.34H34.3506V38.16H32.7706V24.34ZM43.2009 38.42C41.7476 38.42 40.5276 37.9333 39.5409 36.96C38.5542 35.9733 38.0609 34.7533 38.0609 33.3C38.0609 31.6733 38.6209 30.3 39.7409 29.18C40.8609 28.06 42.2276 27.5 43.8409 27.5C45.2809 27.5 46.4876 28 47.4609 29C48.4476 30 48.9409 31.2333 48.9409 32.7C48.9409 34.34 48.3942 35.7067 47.3009 36.8C46.2209 37.88 44.8542 38.42 43.2009 38.42ZM39.2609 32.1C39.2609 33.5267 39.7742 34.8133 40.8009 35.96C41.8409 37.1067 43.0009 37.68 44.2809 37.68C45.2676 37.68 46.0942 37.3267 46.7609 36.62C47.4276 35.9 47.7609 35.0133 47.7609 33.96C47.7609 32.56 47.2676 31.2667 46.2809 30.08C45.3076 28.8933 44.1276 28.3 42.7409 28.3C41.7542 28.3 40.9276 28.6667 40.2609 29.4C39.5942 30.12 39.2609 31.02 39.2609 32.1ZM50.8148 33.74C50.8148 31.9933 51.3481 30.5333 52.4148 29.36C53.4948 28.1867 54.8348 27.6 56.4348 27.6C57.5815 27.6 58.6548 27.8933 59.6548 28.48V23H61.0948V38.16H59.6548V33.12L59.9348 30.36H59.8548C59.4015 32.7333 58.6615 34.66 57.6348 36.14C56.6215 37.62 55.5148 38.36 54.3148 38.36C53.2081 38.36 52.3481 37.96 51.7348 37.16C51.1215 36.3467 50.8148 35.2067 50.8148 33.74ZM52.4548 33.32C52.4548 34.5333 52.6681 35.5333 53.0948 36.32C53.5215 37.0933 54.0615 37.48 54.7148 37.48C55.5148 37.48 56.2681 37.06 56.9748 36.22C57.6815 35.3667 58.2548 34.3133 58.6948 33.06C59.1481 31.7933 59.4615 30.4533 59.6348 29.04C59.2481 28.8267 58.9415 28.6667 58.7148 28.56C58.5015 28.4533 58.1748 28.3533 57.7348 28.26C57.3081 28.1533 56.8415 28.1 56.3348 28.1C55.2415 28.1 54.3215 28.6 53.5748 29.6C52.8281 30.6 52.4548 31.84 52.4548 33.32ZM62.6925 33.46L62.2725 33.32C62.5925 32.44 62.9325 31.68 63.2925 31.04C63.6525 30.3867 64.0791 29.7867 64.5725 29.24C65.0791 28.6933 65.6658 28.28 66.3325 28C66.9991 27.72 67.7458 27.58 68.5725 27.58C69.5191 27.58 70.3125 27.8067 70.9525 28.26C71.6058 28.7133 72.0525 29.6 72.2925 30.92L73.5925 38.16H72.1325L71.3125 33.56C71.0591 34.8667 70.4725 36 69.5525 36.96C68.6325 37.92 67.6325 38.4 66.5525 38.4C65.6725 38.4 64.9525 38.1733 64.3925 37.72C63.8458 37.2533 63.5725 36.6533 63.5725 35.92C63.5725 34.7467 64.2325 33.7933 65.5525 33.06C66.8858 32.3133 68.6991 31.8867 70.9925 31.78L70.8125 30.92C70.6258 30.04 70.3125 29.3533 69.8725 28.86C69.4458 28.3533 68.9391 28.1 68.3525 28.1C67.6058 28.1 66.9258 28.24 66.3125 28.52C65.7125 28.7867 65.1858 29.18 64.7325 29.7C64.2925 30.22 63.9125 30.78 63.5925 31.38C63.2858 31.9667 62.9858 32.66 62.6925 33.46ZM65.1725 35.52C65.1725 36.0933 65.3658 36.5667 65.7525 36.94C66.1525 37.3 66.6591 37.48 67.2725 37.48C68.2191 37.48 69.0791 36.9467 69.8525 35.88C70.6391 34.8 71.0458 33.6 71.0725 32.28C69.2058 32.3333 67.7525 32.64 66.7125 33.2C65.6858 33.76 65.1725 34.5333 65.1725 35.52ZM73.7318 41.28L74.1318 41.18C74.1985 41.4867 74.3518 41.7267 74.5918 41.9C74.8452 42.0733 75.1518 42.1533 75.5118 42.14C76.1385 42.1267 76.7785 41.7867 77.4318 41.12C78.0852 40.4533 78.8452 39.5 79.7118 38.26L75.2918 27.78H76.8318L80.7118 36.84C82.5652 34.3867 83.4918 32.44 83.4918 31C83.4918 30.0533 83.2185 29.3533 82.6718 28.9C82.1252 28.4467 81.2785 28.22 80.1318 28.22V27.76C81.4252 27.76 82.3785 28.0267 82.9918 28.56C83.6052 29.08 83.9118 29.9067 83.9118 31.04C83.9118 31.5467 83.8318 32.06 83.6718 32.58C83.5118 33.1 83.2318 33.7067 82.8318 34.4C82.4318 35.08 82.1252 35.5733 81.9118 35.88C81.7118 36.1733 81.3318 36.7267 80.7718 37.54L80.2118 38.34C79.7718 38.98 79.3985 39.5 79.0918 39.9C78.7852 40.3 78.4118 40.7333 77.9718 41.2C77.5452 41.6667 77.1252 42.0133 76.7118 42.24C76.2985 42.48 75.8918 42.6 75.4918 42.6C75.0252 42.6 74.6252 42.48 74.2918 42.24C73.9718 42 73.7852 41.68 73.7318 41.28Z" fill="black"/>
</svg>
